<svg width="7511" height="3759" xmlns="http://www.w3.org/2000/svg" xmlns:xlink="http://www.w3.org/1999/xlink" xml:space="preserve" overflow="hidden"><defs><clipPath id="clip0"><rect x="1352" y="56" width="7511" height="3759"/></clipPath></defs><g clip-path="url(#clip0)" transform="translate(-1352 -56)"><path d="M2952.5 119.167C2952.5 85.6613 2979.66 58.4999 3013.17 58.4999L7438.83 58.4999C7472.34 58.4999 7499.5 85.6613 7499.5 119.167L7499.5 361.833C7499.5 395.339 7472.34 422.5 7438.83 422.5L3013.17 422.5C2979.66 422.5 2952.5 395.339 2952.5 361.833Z" stroke="#0070C0" stroke-width="4.58333" stroke-miterlimit="8" fill="#C00000" fill-rule="evenodd" fill-opacity="0.301961"/><text font-family="Times New Roman,Times New Roman_MSFontService,sans-serif" font-weight="700" font-size="147" transform="matrix(1 0 0 1 3333.15 294)">Automatic Targetless LiDAR</text><text font-family="Times New Roman,Times New Roman_MSFontService,sans-serif" font-weight="700" font-size="147" transform="matrix(1 0 0 1 5150.92 294)">-</text><text font-family="Times New Roman,Times New Roman_MSFontService,sans-serif" font-weight="700" font-size="147" transform="matrix(1 0 0 1 5199.62 294)">Camera Calibration: A Survey</text><path d="M1355.5 718.501C1355.5 689.782 1378.78 666.5 1407.5 666.5L2277.5 666.5C2306.22 666.5 2329.5 689.782 2329.5 718.501L2329.5 926.499C2329.5 955.219 2306.22 978.5 2277.5 978.5L1407.5 978.5C1378.78 978.5 1355.5 955.219 1355.5 926.499Z" stroke="#0070C0" stroke-width="4.58333" stroke-miterlimit="8" fill="#FFC000" fill-rule="evenodd" fill-opacity="0.301961"/><text font-family="Times New Roman,Times New Roman_MSFontService,sans-serif" font-weight="700" font-size="128" transform="matrix(1 0 0 1 1429.45 869)">1. Introduction</text><path d="M2511.5 714.501C2511.5 685.782 2534.78 662.5 2563.5 662.5L3433.5 662.5C3462.22 662.5 3485.5 685.782 3485.5 714.501L3485.5 922.499C3485.5 951.218 3462.22 974.5 3433.5 974.5L2563.5 974.5C2534.78 974.5 2511.5 951.218 2511.5 922.499Z" stroke="#0070C0" stroke-width="4.58333" stroke-miterlimit="8" fill="#FFC000" fill-rule="evenodd" fill-opacity="0.301961"/><text font-family="Times New Roman,Times New Roman_MSFontService,sans-serif" font-weight="700" font-size="128" transform="matrix(1 0 0 1 2596.13 865)">2. Background</text><path d="M3667.5 721.501C3667.5 692.782 3690.78 669.5 3719.5 669.5L6733.5 669.5C6762.22 669.5 6785.5 692.782 6785.5 721.501L6785.5 929.499C6785.5 958.218 6762.22 981.5 6733.5 981.5L3719.5 981.5C3690.78 981.5 3667.5 958.218 3667.5 929.499Z" stroke="#0070C0" stroke-width="4.58333" stroke-miterlimit="8" fill="#FFC000" fill-rule="evenodd" fill-opacity="0.301961"/><text font-family="Times New Roman,Times New Roman_MSFontService,sans-serif" font-weight="700" font-size="128" transform="matrix(1 0 0 1 3794.51 872)">3. Automatic Targetless LiDAR</text><text font-family="Times New Roman,Times New Roman_MSFontService,sans-serif" font-weight="700" font-size="128" transform="matrix(1 0 0 1 5505.26 872)">-</text><text font-family="Times New Roman,Times New Roman_MSFontService,sans-serif" font-weight="700" font-size="128" transform="matrix(1 0 0 1 5548.23 872)">Camera Calibration</text><path d="M6966.5 714.501C6966.5 685.782 6989.78 662.5 7018.5 662.5L7759.5 662.5C7788.22 662.5 7811.5 685.782 7811.5 714.501L7811.5 922.499C7811.5 951.218 7788.22 974.5 7759.5 974.5L7018.5 974.5C6989.78 974.5 6966.5 951.218 6966.5 922.499Z" stroke="#0070C0" stroke-width="4.58333" stroke-miterlimit="8" fill="#FFC000" fill-rule="evenodd" fill-opacity="0.301961"/><text font-family="Times New Roman,Times New Roman_MSFontService,sans-serif" font-weight="700" font-size="128" transform="matrix(1 0 0 1 7035.43 865)">4. Discussion</text><path d="M7992.5 714.5C7992.5 685.781 8015.78 662.5 8044.5 662.5L8784.5 662.5C8813.22 662.5 8836.5 685.781 8836.5 714.5L8836.5 922.499C8836.5 951.219 8813.22 974.5 8784.5 974.5L8044.5 974.5C8015.78 974.5 7992.5 951.219 7992.5 922.499Z" stroke="#0070C0" stroke-width="4.58333" stroke-miterlimit="8" fill="#FFC000" fill-rule="evenodd" fill-opacity="0.301961"/><text font-family="Times New Roman,Times New Roman_MSFontService,sans-serif" font-weight="700" font-size="128" transform="matrix(1 0 0 1 8043.25 865)">5. Conclusion</text><path d="M2902.5 1352.5C2902.5 1323.78 2925.78 1300.5 2954.5 1300.5L4149.5 1300.5C4178.22 1300.5 4201.5 1323.78 4201.5 1352.5L4201.5 1560.5C4201.5 1589.22 4178.22 1612.5 4149.5 1612.5L2954.5 1612.5C2925.78 1612.5 2902.5 1589.22 2902.5 1560.5Z" stroke="#0070C0" stroke-width="4.58333" stroke-miterlimit="8" fill="#0070C0" fill-rule="evenodd" fill-opacity="0.301961"/><text font-family="Times New Roman,Times New Roman_MSFontService,sans-serif" font-weight="700" font-size="110" transform="matrix(1 0 0 1 2997.79 1430)">3.1 Information Theory </text><text font-family="Times New Roman,Times New Roman_MSFontService,sans-serif" font-weight="700" font-size="110" transform="matrix(1 0 0 1 3192.14 1562)">Based Methods</text><path d="M4334.5 1354.33C4334.5 1325.71 4357.71 1302.5 4386.33 1302.5L5582.67 1302.5C5611.29 1302.5 5634.5 1325.71 5634.5 1354.33L5634.5 1561.67C5634.5 1590.29 5611.29 1613.5 5582.67 1613.5L4386.33 1613.5C4357.71 1613.5 4334.5 1590.29 4334.5 1561.67Z" stroke="#0070C0" stroke-width="4.58333" stroke-miterlimit="8" fill="#0070C0" fill-rule="evenodd" fill-opacity="0.301961"/><text font-family="Times New Roman,Times New Roman_MSFontService,sans-serif" font-weight="700" font-size="110" transform="matrix(1 0 0 1 4565.12 1431)">3.2 Feature Based </text><text font-family="Times New Roman,Times New Roman_MSFontService,sans-serif" font-weight="700" font-size="110" transform="matrix(1 0 0 1 4779.25 1563)">Methods</text><path d="M5766.5 1350.5C5766.5 1321.78 5789.78 1298.5 5818.5 1298.5L7013.5 1298.5C7042.22 1298.5 7065.5 1321.78 7065.5 1350.5L7065.5 1558.5C7065.5 1587.22 7042.22 1610.5 7013.5 1610.5L5818.5 1610.5C5789.78 1610.5 5766.5 1587.22 5766.5 1558.5Z" stroke="#0070C0" stroke-width="4.58333" stroke-miterlimit="8" fill="#0070C0" fill-rule="evenodd" fill-opacity="0.301961"/><text font-family="Times New Roman,Times New Roman_MSFontService,sans-serif" font-weight="700" font-size="110" transform="matrix(1 0 0 1 5903.44 1428)">3.3 Ego</text><text font-family="Times New Roman,Times New Roman_MSFontService,sans-serif" font-weight="700" font-size="110" transform="matrix(1 0 0 1 6251.77 1428)">-</text><text font-family="Times New Roman,Times New Roman_MSFontService,sans-serif" font-weight="700" font-size="110" transform="matrix(1 0 0 1 6288.44 1428)">motion Based </text><text font-family="Times New Roman,Times New Roman_MSFontService,sans-serif" font-weight="700" font-size="110" transform="matrix(1 0 0 1 6210.52 1560)">Methods</text><path d="M7197.5 1356.33C7197.5 1327.71 7220.71 1304.5 7249.33 1304.5L8444.67 1304.5C8473.29 1304.5 8496.5 1327.71 8496.5 1356.33L8496.5 1563.67C8496.5 1592.29 8473.29 1615.5 8444.67 1615.5L7249.33 1615.5C7220.71 1615.5 7197.5 1592.29 7197.5 1563.67Z" stroke="#0070C0" stroke-width="4.58333" stroke-miterlimit="8" fill="#0070C0" fill-rule="evenodd" fill-opacity="0.301961"/><text font-family="Times New Roman,Times New Roman_MSFontService,sans-serif" font-weight="700" font-size="110" transform="matrix(1 0 0 1 7392.86 1433)">3.4 Learning Based </text><text font-family="Times New Roman,Times New Roman_MSFontService,sans-serif" font-weight="700" font-size="110" transform="matrix(1 0 0 1 7641.8 1565)">Methods</text><path d="M3044.5 1785.17C3044.5 1758.84 3065.84 1737.5 3092.17 1737.5L4035.83 1737.5C4062.16 1737.5 4083.5 1758.84 4083.5 1785.17L4083.5 1975.83C4083.5 2002.16 4062.16 2023.5 4035.83 2023.5L3092.17 2023.5C3065.84 2023.5 3044.5 2002.16 3044.5 1975.83Z" stroke="#0070C0" stroke-width="4.58333" stroke-miterlimit="8" fill="#0070C0" fill-rule="evenodd" fill-opacity="0.301961"/><text font-family="Times New Roman,Times New Roman_MSFontService,sans-serif" font-weight="400" font-size="110" transform="matrix(1 0 0 1 3223.35 1854)">3.1.1 Attributes</text><text font-family="Times New Roman,Times New Roman_MSFontService,sans-serif" font-weight="400" font-size="110" transform="matrix(1 0 0 1 3467.52 1986)">Pairs</text><path d="M3044.5 2161.17C3044.5 2134.84 3065.84 2113.5 3092.17 2113.5L4035.83 2113.5C4062.16 2113.5 4083.5 2134.84 4083.5 2161.17L4083.5 2351.83C4083.5 2378.16 4062.16 2399.5 4035.83 2399.5L3092.17 2399.5C3065.84 2399.5 3044.5 2378.16 3044.5 2351.83Z" stroke="#0070C0" stroke-width="4.58333" stroke-miterlimit="8" fill="#0070C0" fill-rule="evenodd" fill-opacity="0.301961"/><text font-family="Times New Roman,Times New Roman_MSFontService,sans-serif" font-weight="400" font-size="110" transform="matrix(1 0 0 1 3223.75 2230)">3.1.2 Statistical </text><text font-family="Times New Roman,Times New Roman_MSFontService,sans-serif" font-weight="400" font-size="110" transform="matrix(1 0 0 1 3141.25 2362)">Similarity Measure</text><path d="M3044.5 2536.17C3044.5 2509.84 3065.84 2488.5 3092.17 2488.5L4035.83 2488.5C4062.16 2488.5 4083.5 2509.84 4083.5 2536.17L4083.5 2726.83C4083.5 2753.16 4062.16 2774.5 4035.83 2774.5L3092.17 2774.5C3065.84 2774.5 3044.5 2753.16 3044.5 2726.83Z" stroke="#0070C0" stroke-width="4.58333" stroke-miterlimit="8" fill="#0070C0" fill-rule="evenodd" fill-opacity="0.301961"/><text font-family="Times New Roman,Times New Roman_MSFontService,sans-serif" font-weight="400" font-size="110" transform="matrix(1 0 0 1 3150.41 2605)">3.1.3 Optimization       </text><text font-family="Times New Roman,Times New Roman_MSFontService,sans-serif" font-weight="400" font-size="110" transform="matrix(1 0 0 1 3371.28 2737)">Methods</text><path d="M3044.5 2911.17C3044.5 2884.84 3065.84 2863.5 3092.17 2863.5L4035.83 2863.5C4062.16 2863.5 4083.5 2884.84 4083.5 2911.17L4083.5 3101.83C4083.5 3128.16 4062.16 3149.5 4035.83 3149.5L3092.17 3149.5C3065.84 3149.5 3044.5 3128.16 3044.5 3101.83Z" stroke="#0070C0" stroke-width="4.58333" stroke-miterlimit="8" fill="#0070C0" fill-rule="evenodd" fill-opacity="0.301961"/><text font-family="Times New Roman,Times New Roman_MSFontService,sans-serif" font-weight="400" font-size="110" transform="matrix(1 0 0 1 3226.32 3046)">3.1.4 Summary</text><path d="M0-6.875 272.55-6.875 272.55 70.8735 258.8 70.8735 258.8 0 265.675 6.875 0 6.875ZM286.3 63.9985 265.675 105.248 245.05 63.9985Z" transform="matrix(1.83697e-16 1 1 -1.83697e-16 2939 1615)"/><path d="M1437.5 1376.33C1437.5 1334.45 1471.45 1300.5 1513.33 1300.5L2493.67 1300.5C2535.55 1300.5 2569.5 1334.45 2569.5 1376.33L2569.5 1679.67C2569.5 1721.55 2535.55 1755.5 2493.67 1755.5L1513.33 1755.5C1471.45 1755.5 1437.5 1721.55 1437.5 1679.67Z" stroke="#0070C0" stroke-width="4.58333" stroke-miterlimit="8" fill="#0070C0" fill-rule="evenodd" fill-opacity="0.301961"/><text font-family="Times New Roman,Times New Roman_MSFontService,sans-serif" font-weight="700" font-size="110" transform="matrix(1 0 0 1 1550.13 1435)">2.1 Transformation </text><text font-family="Times New Roman,Times New Roman_MSFontService,sans-serif" font-weight="700" font-size="110" transform="matrix(1 0 0 1 1523.27 1567)">between LiDAR and </text><text font-family="Times New Roman,Times New Roman_MSFontService,sans-serif" font-weight="700" font-size="110" transform="matrix(1 0 0 1 1512.96 1699)">Camera Coordinates</text><path d="M1437.5 1945.33C1437.5 1903.45 1471.45 1869.5 1513.33 1869.5L2493.67 1869.5C2535.55 1869.5 2569.5 1903.45 2569.5 1945.33L2569.5 2248.67C2569.5 2290.55 2535.55 2324.5 2493.67 2324.5L1513.33 2324.5C1471.45 2324.5 1437.5 2290.55 1437.5 2248.67Z" stroke="#0070C0" stroke-width="4.58333" stroke-miterlimit="8" fill="#0070C0" fill-rule="evenodd" fill-opacity="0.301961"/><text font-family="Times New Roman,Times New Roman_MSFontService,sans-serif" font-weight="700" font-size="110" transform="matrix(1 0 0 1 1610.92 2004)">2.2 Categories of </text><text font-family="Times New Roman,Times New Roman_MSFontService,sans-serif" font-weight="700" font-size="110" transform="matrix(1 0 0 1 1504.08 2136)">Extrinsic Calibration </text><text font-family="Times New Roman,Times New Roman_MSFontService,sans-serif" font-weight="700" font-size="110" transform="matrix(1 0 0 1 1798.56 2268)">Methods</text><path d="M2681.12 970 2681.12 1534.53 2603.37 1534.53 2603.37 1520.78 2674.25 1520.78 2667.37 1527.66 2667.37 970ZM2610.25 1548.28 2569 1527.66 2610.25 1507.03Z"/><path d="M2681.45 1527 2681.45 2102.98 2595.38 2102.98 2595.38 2089.23 2674.58 2089.23 2667.7 2096.11 2667.7 1527ZM2602.25 2116.73 2561 2096.11 2602.25 2075.48Z"/><path d="M0-6.875 337.613-6.875 337.613 70.8735 323.863 70.8735 323.863 0 330.738 6.875 0 6.875ZM351.363 63.9985 330.738 105.248 310.113 63.9985Z" transform="matrix(1.83697e-16 1 1 -1.83697e-16 2939 1887)"/><path d="M4462.5 1784.17C4462.5 1757.84 4483.84 1736.5 4510.17 1736.5L5454.83 1736.5C5481.16 1736.5 5502.5 1757.84 5502.5 1784.17L5502.5 1974.83C5502.5 2001.16 5481.16 2022.5 5454.83 2022.5L4510.17 2022.5C4483.84 2022.5 4462.5 2001.16 4462.5 1974.83Z" stroke="#0070C0" stroke-width="4.58333" stroke-miterlimit="8" fill="#0070C0" fill-rule="evenodd" fill-opacity="0.301961"/><text font-family="Times New Roman,Times New Roman_MSFontService,sans-serif" font-weight="400" font-size="110" transform="matrix(1 0 0 1 4693.62 1853)">3.2.1 Feature </text><text font-family="Times New Roman,Times New Roman_MSFontService,sans-serif" font-weight="400" font-size="110" transform="matrix(1 0 0 1 4753.51 1985)">Extraction</text><path d="M4462.5 2159.17C4462.5 2132.84 4483.84 2111.5 4510.17 2111.5L5454.83 2111.5C5481.16 2111.5 5502.5 2132.84 5502.5 2159.17L5502.5 2349.83C5502.5 2376.16 5481.16 2397.5 5454.83 2397.5L4510.17 2397.5C4483.84 2397.5 4462.5 2376.16 4462.5 2349.83Z" stroke="#0070C0" stroke-width="4.58333" stroke-miterlimit="8" fill="#0070C0" fill-rule="evenodd" fill-opacity="0.301961"/><text font-family="Times New Roman,Times New Roman_MSFontService,sans-serif" font-weight="400" font-size="110" transform="matrix(1 0 0 1 4693.62 2228)">3.2.2 Feature </text><text font-family="Times New Roman,Times New Roman_MSFontService,sans-serif" font-weight="400" font-size="110" transform="matrix(1 0 0 1 4541.23 2360)">Matching Strategies</text><path d="M4462.5 2535.17C4462.5 2508.84 4483.84 2487.5 4510.17 2487.5L5454.83 2487.5C5481.16 2487.5 5502.5 2508.84 5502.5 2535.17L5502.5 2725.83C5502.5 2752.16 5481.16 2773.5 5454.83 2773.5L4510.17 2773.5C4483.84 2773.5 4462.5 2752.16 4462.5 2725.83Z" stroke="#0070C0" stroke-width="4.58333" stroke-miterlimit="8" fill="#0070C0" fill-rule="evenodd" fill-opacity="0.301961"/><text font-family="Times New Roman,Times New Roman_MSFontService,sans-serif" font-weight="400" font-size="110" transform="matrix(1 0 0 1 4644.64 2670)">3.2.3 Summary</text><path d="M5927.5 1831.67C5927.5 1759.23 5986.23 1700.5 6058.67 1700.5L6835.33 1700.5C6907.77 1700.5 6966.5 1759.23 6966.5 1831.67L6966.5 2356.33C6966.5 2428.77 6907.77 2487.5 6835.33 2487.5L6058.67 2487.5C5986.23 2487.5 5927.5 2428.77 5927.5 2356.33Z" stroke="#0070C0" stroke-width="4.58333" stroke-miterlimit="8" fill="#0070C0" fill-rule="evenodd" fill-opacity="0.301961"/><text font-family="Times New Roman,Times New Roman_MSFontService,sans-serif" font-weight="400" font-size="110" transform="matrix(1 0 0 1 6108.97 1903)">3.3.1 Hand</text><text font-family="Times New Roman,Times New Roman_MSFontService,sans-serif" font-weight="400" font-size="110" transform="matrix(1 0 0 1 6594.8 1903)">-</text><text font-family="Times New Roman,Times New Roman_MSFontService,sans-serif" font-weight="400" font-size="110" transform="matrix(1 0 0 1 6631.47 1903)">eye </text><text font-family="Times New Roman,Times New Roman_MSFontService,sans-serif" font-weight="400" font-size="110" transform="matrix(1 0 0 1 6105.81 2035)">Based Methods</text><text font-family="Times New Roman,Times New Roman_MSFontService,sans-serif" font-weight="400" font-size="92" transform="matrix(1 0 0 1 6075.74 2150)">-</text><text font-family="Times New Roman,Times New Roman_MSFontService,sans-serif" font-weight="400" font-size="92" transform="matrix(1 0 0 1 6129.02 2150)">Motion Estimation</text><text font-family="Times New Roman,Times New Roman_MSFontService,sans-serif" font-weight="400" font-size="92" transform="matrix(1 0 0 1 6110.11 2260)">-</text><text font-family="Times New Roman,Times New Roman_MSFontService,sans-serif" font-weight="400" font-size="92" transform="matrix(1 0 0 1 6163.4 2260)">Parameterization</text><text font-family="Times New Roman,Times New Roman_MSFontService,sans-serif" font-weight="400" font-size="92" transform="matrix(1 0 0 1 6042.51 2370)">-</text><text font-family="Times New Roman,Times New Roman_MSFontService,sans-serif" font-weight="400" font-size="92" transform="matrix(1 0 0 1 6095.79 2370)">Refinement Strategy</text><path d="M5924.5 2649C5924.5 2607.3 5958.3 2573.5 6000 2573.5L6889 2573.5C6930.7 2573.5 6964.5 2607.3 6964.5 2649L6964.5 2951C6964.5 2992.7 6930.7 3026.5 6889 3026.5L6000 3026.5C5958.3 3026.5 5924.5 2992.7 5924.5 2951Z" stroke="#0070C0" stroke-width="4.58333" stroke-miterlimit="8" fill="#0070C0" fill-rule="evenodd" fill-opacity="0.301961"/><text font-family="Times New Roman,Times New Roman_MSFontService,sans-serif" font-weight="400" font-size="110" transform="matrix(1 0 0 1 6037.86 2707)">3.3.2 3D Structure </text><text font-family="Times New Roman,Times New Roman_MSFontService,sans-serif" font-weight="400" font-size="110" transform="matrix(1 0 0 1 6058.21 2839)">Estimation Based </text><text font-family="Times New Roman,Times New Roman_MSFontService,sans-serif" font-weight="400" font-size="110" transform="matrix(1 0 0 1 6251.56 2971)">Methods</text><path d="M5924.5 3177.17C5924.5 3150.84 5945.84 3129.5 5972.17 3129.5L6916.83 3129.5C6943.16 3129.5 6964.5 3150.84 6964.5 3177.17L6964.5 3367.83C6964.5 3394.16 6943.16 3415.5 6916.83 3415.5L5972.17 3415.5C5945.84 3415.5 5924.5 3394.16 5924.5 3367.83Z" stroke="#0070C0" stroke-width="4.58333" stroke-miterlimit="8" fill="#0070C0" fill-rule="evenodd" fill-opacity="0.301961"/><text font-family="Times New Roman,Times New Roman_MSFontService,sans-serif" font-weight="400" font-size="110" transform="matrix(1 0 0 1 5988.87 3312)">3.3.3 Other Methods</text><path d="M7346.5 1791.17C7346.5 1764.84 7367.84 1743.5 7394.17 1743.5L8338.83 1743.5C8365.16 1743.5 8386.5 1764.84 8386.5 1791.17L8386.5 1981.83C8386.5 2008.16 8365.16 2029.5 8338.83 2029.5L7394.17 2029.5C7367.84 2029.5 7346.5 2008.16 7346.5 1981.83Z" stroke="#0070C0" stroke-width="4.58333" stroke-miterlimit="8" fill="#0070C0" fill-rule="evenodd" fill-opacity="0.301961"/><text font-family="Times New Roman,Times New Roman_MSFontService,sans-serif" font-weight="400" font-size="110" transform="matrix(1 0 0 1 7495.1 1860)">3.4.1 End</text><text font-family="Times New Roman,Times New Roman_MSFontService,sans-serif" font-weight="400" font-size="110" transform="matrix(1 0 0 1 7919.63 1860)">-</text><text font-family="Times New Roman,Times New Roman_MSFontService,sans-serif" font-weight="400" font-size="110" transform="matrix(1 0 0 1 7956.3 1860)">to</text><text font-family="Times New Roman,Times New Roman_MSFontService,sans-serif" font-weight="400" font-size="110" transform="matrix(1 0 0 1 8041.67 1860)">-</text><text font-family="Times New Roman,Times New Roman_MSFontService,sans-serif" font-weight="400" font-size="110" transform="matrix(1 0 0 1 8078.33 1860)">end </text><text font-family="Times New Roman,Times New Roman_MSFontService,sans-serif" font-weight="400" font-size="110" transform="matrix(1 0 0 1 7673.58 1992)">Methods</text><path d="M7346.5 2177.17C7346.5 2150.84 7367.84 2129.5 7394.17 2129.5L8338.83 2129.5C8365.16 2129.5 8386.5 2150.84 8386.5 2177.17L8386.5 2367.83C8386.5 2394.16 8365.16 2415.5 8338.83 2415.5L7394.17 2415.5C7367.84 2415.5 7346.5 2394.16 7346.5 2367.83Z" stroke="#0070C0" stroke-width="4.58333" stroke-miterlimit="8" fill="#0070C0" fill-rule="evenodd" fill-opacity="0.301961"/><text font-family="Times New Roman,Times New Roman_MSFontService,sans-serif" font-weight="400" font-size="110" transform="matrix(1 0 0 1 7568.15 2246)">3.4.2 Hybrid</text><text font-family="Times New Roman,Times New Roman_MSFontService,sans-serif" font-weight="400" font-size="110" transform="matrix(1 0 0 1 8127.32 2246)">-</text><text font-family="Times New Roman,Times New Roman_MSFontService,sans-serif" font-weight="400" font-size="110" transform="matrix(1 0 0 1 7479.92 2378)">learning Methods</text><path d="M7346.5 2563.17C7346.5 2536.84 7367.84 2515.5 7394.17 2515.5L8338.83 2515.5C8365.16 2515.5 8386.5 2536.84 8386.5 2563.17L8386.5 2753.83C8386.5 2780.16 8365.16 2801.5 8338.83 2801.5L7394.17 2801.5C7367.84 2801.5 7346.5 2780.16 7346.5 2753.83Z" stroke="#0070C0" stroke-width="4.58333" stroke-miterlimit="8" fill="#0070C0" fill-rule="evenodd" fill-opacity="0.301961"/><text font-family="Times New Roman,Times New Roman_MSFontService,sans-serif" font-weight="400" font-size="110" transform="matrix(1 0 0 1 7528.62 2698)">3.4.3 Summary</text><path d="M0-6.875 265.375-6.875 265.375 56.3519 251.625 56.3519 251.625 0 258.5 6.875 0 6.875ZM279.125 49.4769 258.5 90.7269 237.875 49.4769Z" transform="matrix(1.83697e-16 1 1 -1.83697e-16 4372 1621)"/><path d="M0-6.875 382.164-6.875 382.164 63.6802 368.414 63.6802 368.414 0 375.289 6.875 0 6.875ZM395.914 56.8052 375.289 98.0552 354.664 56.8052Z" transform="matrix(1.83697e-16 1 1 -1.83697e-16 4374 1886)"/><path d="M0-6.875 445.642-6.875 445.642 70.8735 431.892 70.8735 431.892 0 438.767 6.875 0 6.875ZM459.392 63.9985 438.767 105.248 418.142 63.9985Z" transform="matrix(1.83697e-16 1 1 -1.83697e-16 2939 2192)"/><path d="M0-6.875 379.639-6.875 379.639 70.8742 365.889 70.8742 365.889 0 372.764 6.875 0 6.875ZM393.389 63.9992 372.764 105.249 352.139 63.9992Z" transform="matrix(1.83697e-16 1 1 -1.83697e-16 2939 2633)"/><path d="M0-6.875 374.92-6.875 374.92 63.6809 361.17 63.6809 361.17 0 368.045 6.875 0 6.875ZM388.67 56.8059 368.045 98.0559 347.42 56.8059Z" transform="matrix(1.83697e-16 1 1 -1.83697e-16 4378 2268)"/><path d="M0-6.875 487.075-6.875 487.075 93.2723 473.325 93.2723 473.325 0 480.2 6.875 0 6.875ZM500.825 86.3973 480.2 127.647 459.575 86.3973Z" transform="matrix(1.83697e-16 1 1 -1.83697e-16 5799 1613)"/><path d="M0-6.875 980.612-6.875 980.612 93.2719 966.862 93.2719 966.862 0 973.737 6.875 0 6.875ZM994.362 86.3969 973.737 127.647 953.112 86.3969Z" transform="matrix(1.83697e-16 1 1 -1.83697e-16 5797 1826)"/><path d="M0-6.875 1057.02-6.875 1057.02 93.2726 1043.27 93.2726 1043.27 0 1050.15 6.875 0 6.875ZM1070.77 86.3976 1050.15 127.648 1029.52 86.3976Z" transform="matrix(1.83697e-16 1 1 -1.83697e-16 5797 2222)"/><path d="M0-6.875 279.239-6.875 279.239 64.4972 265.489 64.4972 265.489 0 272.364 6.875 0 6.875ZM292.989 57.6222 272.364 98.8722 251.739 57.6222Z" transform="matrix(1.83697e-16 1 1 -1.83697e-16 7248 1613)"/><path d="M0-6.875 396.407-6.875 396.407 64.4229 382.657 64.4229 382.657 0 389.532 6.875 0 6.875ZM410.157 57.5479 389.532 98.7979 368.907 57.5479Z" transform="matrix(1.83697e-16 1 1 -1.83697e-16 7250 1883)"/><path d="M0-6.875 394.359-6.875 394.359 64.4972 380.609 64.4972 380.609 0 387.484 6.875 0 6.875ZM408.109 57.6222 387.484 98.8722 366.859 57.6222Z" transform="matrix(1.83697e-16 1 1 -1.83697e-16 7248 2270)"/><path d="M5232.16 981 5232.16 1147.54 3551 1147.54 3557.87 1140.67 3557.87 1265.96 3544.12 1265.96 3544.12 1133.79 5225.29 1133.79 5218.41 1140.67 5218.41 981ZM3571.62 1259.09 3551 1300.34 3530.37 1259.09Z"/><path d="M5232.47 981 5232.47 1148.31 4984 1148.31 4990.88 1141.44 4990.88 1267.5 4977.13 1267.5 4977.13 1134.56 5225.59 1134.56 5218.72 1141.44 5218.72 981ZM5004.63 1260.63 4984 1301.88 4963.38 1260.63Z"/><path d="M0-6.875 165.742-6.875 165.742 1189.68 158.867 1182.8 283.359 1182.8 283.359 1196.55 151.992 1196.55 151.992 0 158.867 6.875 0 6.875ZM276.484 1169.05 317.734 1189.68 276.484 1210.3Z" transform="matrix(1.83697e-16 1 1 -1.83697e-16 5226 981)"/><path d="M0-6.875 168.312-6.875 168.312 2620.95 161.437 2614.07 288.499 2614.07 288.499 2627.82 154.562 2627.82 154.562 0 161.437 6.875 0 6.875ZM281.624 2600.32 322.874 2620.95 281.624 2641.57Z" transform="matrix(1.83697e-16 1 1 -1.83697e-16 5226 981)"/><path d="M5232.31 422 5232.31 550.653 1842 550.653 1848.87 543.778 1848.87 631.18 1835.12 631.18 1835.12 536.903 5225.44 536.903 5218.56 543.778 5218.56 422ZM1862.62 624.305 1842 665.555 1821.37 624.305Z"/><path d="M5232.52 422 5232.52 548.691 2998 548.691 3004.87 541.816 3004.87 627.255 2991.12 627.255 2991.12 534.941 5225.64 534.941 5218.77 541.816 5218.77 422ZM3018.62 620.38 2998 661.63 2977.37 620.38Z"/><path d="M0-6.875 126.691-6.875 126.691 2162.68 119.816 2155.81 205.255 2155.81 205.255 2169.56 112.941 2169.56 112.941 0 119.816 6.875 0 6.875ZM198.38 2142.06 239.63 2162.68 198.38 2183.31Z" transform="matrix(1.83697e-16 1 1 -1.83697e-16 5226 422)"/><path d="M0-6.875 126.69-6.875 126.69 3188.55 119.815 3181.68 205.255 3181.68 205.255 3195.43 112.94 3195.43 112.94 0 119.815 6.875 0 6.875ZM198.38 3167.93 239.63 3188.55 198.38 3209.18Z" transform="matrix(1.83697e-16 1 1 -1.83697e-16 5226 422)"/><path d="M5234.46 424 5234.46 554.224 5223 554.224 5229.88 547.349 5229.88 636.323 5216.12 636.323 5216.12 540.474 5227.58 540.474 5220.71 547.349 5220.71 424ZM5243.62 629.448 5223 670.698 5202.38 629.448Z"/><path d="M5924.5 3574.17C5924.5 3547.84 5945.84 3526.5 5972.17 3526.5L6916.83 3526.5C6943.16 3526.5 6964.5 3547.84 6964.5 3574.17L6964.5 3764.83C6964.5 3791.16 6943.16 3812.5 6916.83 3812.5L5972.17 3812.5C5945.84 3812.5 5924.5 3791.16 5924.5 3764.83Z" stroke="#0070C0" stroke-width="4.58333" stroke-miterlimit="8" fill="#0070C0" fill-rule="evenodd" fill-opacity="0.301961"/><text font-family="Times New Roman,Times New Roman_MSFontService,sans-serif" font-weight="400" font-size="110" transform="matrix(1 0 0 1 6106.61 3709)">3.3.4 Summary</text><path d="M0-6.875 437.844-6.875 437.844 90.9128 424.094 90.9128 424.094 0 430.969 6.875 0 6.875ZM451.594 84.0378 430.969 125.288 410.344 84.0378Z" transform="matrix(1.83697e-16 1 1 -1.83697e-16 5799 3238)"/></g></svg>